<?xml version="1.0" encoding="utf-8"?>
<!-- Generator: Adobe Illustrator 23.0.5, SVG Export Plug-In . SVG Version: 6.00 Build 0)  -->
<svg version="1.1" id="Capa_1" xmlns="http://www.w3.org/2000/svg" xmlns:xlink="http://www.w3.org/1999/xlink" x="0px" y="0px"
	 viewBox="0 0 1000 1000" style="enable-background:new 0 0 1000 1000;" xml:space="preserve">
<style type="text/css">
	.st0{fill:#FF0000;}
</style>
<g>
	<g>
		<path class="st0" d="M20.8,188.2c60.5-13.4,121-26.7,181.5-40.1C256.9,286,311.5,423.8,366.2,561.7
			c30.8-89.5,48.5-189.6,51.8-294.1c0.3-8,0.7-16.8,5.1-21.3c4-4.1,10-3.3,15.6-2.3c39.6,7.1,79.1,14.2,118.7,21.3
			c2.9,0.5,6,1.2,8.2,4.3c2,2.8,2.5,6.7,2.8,10.3c9.4,92.3,23.5,184.9,42,276.9c12.7,3.8,17.9-16.5,20.2-32.5
			c10-67.4,38.8-122.4,67.2-175.7c23.3-43.8,46.6-87.6,69.8-131.4c1.6-2.9,3.2-6,5.8-7.2c4.1-1.9,9.1,1.2,13.6,4.2
			c54.1,36.7,108.2,73.4,162.2,110.1c-16,24.6-31.7,49.5-47.3,74.6c-22.8,36.9-45.3,74.4-62.4,117.3c-9.8,24.8-17.8,51.2-29.4,74.3
			c-12.3,24.7-28.5,45.1-42.7,67.7c-22.2,35.2-39.6,75.8-59.4,113.6c-3.5,6.6-7.3,13.3-13.2,15.7c-5.3,2.1-11.5,0.3-17.4-1.5
			c-42.6-13.3-85-29.9-127.1-49.6c-6-2.8-12.3-5.9-17.4-11.7c-6.6-7.5-10.3-18.5-13.3-29c-10.8-36.4-18.4-73.9-22.7-111.1
			c-33.2,25-39,93.1-75.4,110.9c-15.5,7.6-34,4.3-51.8,0.9c-23.3-4.4-46.6-8.8-69.9-13.2c-8.3-1.6-17-3.3-24.4-10.1
			c-9.9-9-15.3-24.7-20.2-39.2C200.5,473.8,112,333.5,25.1,196.2"/>
		<g>
			<path class="st0" d="M24.9,203c60.5-13.4,121-26.7,181.5-40.1c-6.3-3.6-12.6-7.2-18.9-10.8C230,259.6,272.6,367,315.1,474.4
				c12.1,30.4,24.1,60.9,36.2,91.3c2.4,6.2,7.6,11.6,14.9,11.3c7.1-0.3,12.6-4.6,14.9-11.3c31-90.2,47.1-185.4,51.6-280.5
				c0.3-5.9,0.5-11.8,0.7-17.7c0.1-2.5,0.2-5.1,0.4-7.6c0.1-0.7,0.7-2.8,0-0.3c0.1-0.5,1.5-5.1,0.7-3.4c-0.1,0.2-0.2,0.4-0.3,0.7
				c0.9-1.5,0.8-1.4-0.3,0.2c-1,0.6-2,0.9-2.9,1.4c-1.6,0.8,1.3,0.1,2,0.1c4.2,0-1.5-0.5,0.8,0.1c6.1,1.6,12.7,2.3,19,3.4
				c25.6,4.6,51.1,9.2,76.7,13.8c6.1,1.1,12.2,2.2,18.3,3.3c2.5,0.5,5.1,1,7.7,1.4c2.7,0.4-0.9-0.4-1.6-1.2c-1-1-1.5-3.5-1.1-0.9
				c0.8,4.5-0.2-3.2,0.3,1.3c0.1,1.2,0.3,2.4,0.4,3.6c0.3,3,0.6,6,0.9,9c0.7,6.6,1.4,13.3,2.2,19.9c3,26.2,6.3,52.3,10,78.4
				c8,57,17.7,113.7,29.1,170c1,5.1,5.9,9.5,10.8,10.8c21,5.4,32.6-13.7,36.9-31.2c2.1-8.4,3-17,4.6-25.5c1.8-9.5,4-19,6.6-28.3
				c2.5-9.1,5.3-18.1,8.5-27c1.5-4.3,3.1-8.5,4.7-12.7c0.9-2.2,1.7-4.4,2.6-6.6c0.4-1,0.8-2,1.2-2.9c0,0,1.9-4.4,0.9-2.1
				c7.1-16.7,15-33,23.3-49.1c18.5-36.1,38-71.8,57-107.7c10-18.9,20.6-37.6,30.2-56.6c0.1-0.2,0.3-0.4,0.4-0.6
				c-0.7,1.5-2,2.2-3.9,2.3c-1,0.4-2.1,0.8-3.2,1.2c-0.8,0-1.6-0.2-2.3-0.7c0.5-0.4,4.9,2.9,5.5,3.3c4.6,3.1,9.2,6.2,13.8,9.4
				c9.2,6.2,18.4,12.5,27.5,18.7c40.3,27.4,80.6,54.7,120.9,82.1c-1.8-7-3.7-14-5.5-21.1c-30.1,46.4-60.9,93-86.6,142.1
				c-12.9,24.5-23.6,49.9-33,75.9c-9.5,26-17.8,48.1-32.8,71.7c-13.9,22.1-29.4,43-42.1,65.9c-13.3,24.1-25,49-37.3,73.6
				c-2.8,5.6-5.7,11.2-8.6,16.8c-1.4,2.7-2.8,5.4-4.4,8c-0.2,0.4-3.1,3.8-0.9,1.5c-0.6,0.7-1.2,1.3-1.9,1.9c1.4-1,1.4-1.1,0-0.2
				c0.8-0.3,1.4-0.4,2.1-0.6c-0.5,0-1,0-1.6,0c1.4,0.3,1.2,0.3-0.7-0.1c-3.3-0.7-6.6-1.8-9.9-2.9c-6.7-2.1-13.5-4.3-20.2-6.6
				c-26.7-9.1-53.5-19.5-78.3-30.5c-7.2-3.2-14.5-6.5-21.6-9.8c-3.1-1.4-6.2-2.9-9-4.7c-0.1-0.1-3.9-2.9-1.8-1.2
				c-1.6-1.3-3.1-2.8-4.3-4.5c1.5,2,0.1-0.1-0.1-0.4c-0.9-1.8-2-3.4-2.9-5.2c0,0-2-4.6-0.9-2c-0.8-2-1.5-3.9-2.1-5.9
				c-2.4-7.1-4.3-14.3-6.3-21.5c-4.3-15.7-8-31.6-11.1-47.5c-1.5-7.7-2.9-15.3-4.1-23.1c-1.4-8.7-2.2-14.5-3.1-22.6
				c-0.7-5.6-2.5-10.3-7.6-13.3c-4.3-2.5-11.3-3.2-15.5,0c-17,13-27.1,31.1-35.9,50.2c-4.3,9.4-8.4,18.9-13,28.2
				c-2.2,4.3-4.5,8.6-7,12.8c-1.1,1.8-2.3,3.7-3.5,5.4c-0.6,0.8-1.3,2.4-2.2,3c0,0,2-2.4,0.8-1.1c-0.5,0.5-0.9,1.1-1.3,1.6
				c-1.3,1.5-2.7,3-4.1,4.4c-0.8,0.8-1.7,1.6-2.5,2.3c-0.4,0.3-0.8,0.6-1.1,0.9c-1.4,1.3,2.5-1.6,0.8-0.6c-1.7,1-3.3,2.1-4.9,3.1
				c-0.3,0.1-2.1,1.1-0.9,0.5c1.3-0.6-1,0.4-1,0.4c-1.7,0.6-3.4,1.1-5.2,1.5c-0.8,0.2-1.5,0.3-2.3,0.5c0.3-0.1,2.1-0.2,0.3,0
				c-1.8,0.2-3.7,0.3-5.5,0.3c-3.5,0.1-6.9-0.1-10.4-0.5c-0.8-0.1-1.6-0.2-2.4-0.3c0.4,0,1.9,0.3,0,0c-1.9-0.3-3.8-0.6-5.7-0.9
				c-3.6-0.6-7.2-1.3-10.8-2c-15.5-2.9-31.1-5.9-46.6-8.8c-7.8-1.5-15.6-2.9-23.4-4.4c-2.8-0.6-5.6-1.2-8.4-2.1
				c-0.8-0.3-3.8-1.7-1.8-0.6c-0.7-0.4-1.3-0.7-2-1.1c-0.5-0.3-3-1.9-1.4-0.7c-1.2-0.9-2.2-1.9-3.2-3c-0.6-0.6-2.6-3.1-1.1-1.2
				c-2-2.7-3.7-5.7-5.2-8.7c-0.7-1.3-1.3-2.7-1.9-4.1c0,0-1-2.3-0.4-1c0.6,1.4-0.4-1-0.4-1c-1.3-3.4-2.5-6.8-3.7-10.2
				c-4.8-13.8-9.6-27.6-14.9-41.3c-10.7-28.2-22.5-55.9-35-83.3c-24.4-53.1-52-104.6-81.3-155.1c-29-50-59.7-99-90.6-147.9
				c-3.8-6-7.6-12.1-11.5-18.1c-4.3-6.8-13.9-10.1-21.1-5.5c-6.8,4.4-10.1,13.8-5.5,21.1C43.4,253.9,75,303.9,105,354.8
				c30.2,51.2,58.7,103.4,84.1,157.2c13.1,27.8,24,53,34.9,81c5.5,14.1,10.7,28.2,15.6,42.5c4.6,13.3,8.9,27.6,17.2,39.1
				c4.8,6.7,10.6,12.7,18.1,16.6c6.7,3.4,13.6,5.3,21,6.7c15.8,3,31.7,6,47.5,9c28.7,5.4,63.4,16.4,90.3-0.6
				c18-11.4,28.5-30.7,37.2-49.5c4.4-9.4,8.5-19,13-28.3c2.3-4.6,4.6-9.1,7.3-13.5c1.2-2,2.5-4.1,3.8-6c0.6-0.9,1.2-1.8,1.9-2.6
				c1.5-2.1-1.7,2,0.5-0.7c1.4-1.7,2.9-3.4,4.5-5c0.8-0.8,1.7-1.7,2.6-2.4c0.7-0.7,3.7-3.1,0.4-0.5c-7.7-4.4-15.4-8.9-23.2-13.3
				c3.6,30.6,9,60.9,16.6,90.8c3.7,14.5,7.4,29.2,13.3,43c5.8,13.5,15.3,23.6,28.6,30.1c27,13.1,54.9,24.6,83,35.1
				c13.9,5.2,27.9,10.1,41.9,14.6c7.3,2.3,14.5,5,22.2,5.6c9,0.7,17.5-2.7,23.8-9c9.4-9.4,14.6-23.3,20.5-35
				c6.4-12.9,12.7-25.8,19.1-38.7c12.6-25.3,26.2-49.7,42-73.1c7.4-11,15-21.9,21.8-33.3c7.6-12.8,13.8-26.1,19.4-39.9
				c5.4-13.2,10-26.7,15-40.1c5.1-13.8,9.5-24.7,15.6-37.7c13-27.8,28.5-54.4,44.6-80.5c17.4-28.4,35.2-56.5,53.3-84.4
				c4.7-7.3,1.1-16.6-5.5-21.1c-36.2-24.6-72.5-49.2-108.7-73.7c-17.9-12.1-35.6-24.4-53.6-36.4c-11.1-7.4-25.1-10.3-35.1,0.7
				c-3.6,4-5.9,8.9-8.4,13.6c-2.7,5.1-5.5,10.3-8.2,15.4c-20.1,37.9-40.3,75.8-60.4,113.7c-17.5,33-34.5,66.2-47.5,101.3
				c-7.6,20.5-13.6,41.5-17.5,63c-1.7,9.4-2.6,19-5.4,28.1c-0.2,0.8-0.5,1.6-0.8,2.4c-0.2,0.5-1.5,3.5-0.5,1.5
				c1.1-2.2-0.6,1.1-0.7,1.2c-0.4,0.8-1,1.5-1.4,2.2c-1,1.9,2.4-2.8,0.3-0.5c-1.8,2,2.1-1.5,0.7-0.6c-0.7,0.4,3.4-1,4.2-1
				c-2.9,0,3.7,0.9,0.4,0.1c3.6,3.6,7.2,7.2,10.8,10.8c-10.6-52.8-19.8-105.9-27.5-159.2c-3.7-25.8-6.9-50.7-10-77.4
				c-1.5-12.7-2.6-25.5-4.2-38.2c-0.9-7.4-2.5-14.7-8-20.2c-4.9-5-11.1-6.7-17.8-7.9c-26.8-4.8-53.6-9.6-80.3-14.4
				c-13.8-2.5-27.7-5.6-41.6-7.2c-15.2-1.8-27.9,7-31.4,22c-2.9,12.4-2.1,26-2.7,38.7c-0.7,12.9-1.5,25.7-2.6,38.5
				c-2.2,25.4-4.9,48.2-8.7,72.1c-8.5,53.7-21.3,106.7-39,158.2c9.9,0,19.8,0,29.7,0c-42.6-107.4-85.1-214.8-127.7-322.2
				c-12.1-30.4-24.1-60.9-36.2-91.3c-3.2-8.1-10-12.7-18.9-10.8c-60.5,13.4-121,26.7-181.5,40.1C8.9,175.1,3.5,184.6,6,192.3
				C8.6,200.6,16.5,204.9,24.9,203L24.9,203z"/>
		</g>
	</g>
	<g>
		<g>
			<path class="st0" d="M54.9,266.6c60.5-13.4,121-26.7,181.5-40.1c-6.3-3.6-12.6-7.2-18.9-10.8C260,323.2,302.5,430.6,345.1,538
				c12.1,30.4,24.1,60.9,36.2,91.3c2.4,6.1,7.6,11.6,14.9,11.3c7.1-0.3,12.6-4.6,14.9-11.3c31-90.2,47.1-185.4,51.6-280.5
				c0.3-5.9,0.5-11.8,0.7-17.7c0.1-2.5,0.2-5.1,0.4-7.6c0.1-0.7,0.7-2.8,0-0.3c0.1-0.5,1.5-5.1,0.7-3.4c-0.1,0.2-0.2,0.4-0.3,0.7
				c0.9-1.5,0.8-1.4-0.3,0.2c-1,0.6-2,0.9-2.9,1.4c-1.6,0.8,1.3,0.1,2,0.1c4.2,0-1.5-0.5,0.8,0.1c6.1,1.6,12.7,2.3,19,3.4
				c25.6,4.6,51.1,9.2,76.7,13.8c6.1,1.1,12.2,2.2,18.3,3.3c2.5,0.5,5.1,1,7.7,1.4c2.7,0.4-0.9-0.4-1.6-1.2c-1-1-1.5-3.5-1.1-0.9
				c0.8,4.5-0.2-3.2,0.3,1.3c0.1,1.2,0.3,2.4,0.4,3.6c0.3,3,0.6,6,0.9,9c0.7,6.6,1.4,13.3,2.2,19.9c3,26.2,6.3,52.3,10,78.4
				c8,57,17.7,113.7,29.1,170c1,5.1,5.9,9.5,10.8,10.8c21,5.4,32.6-13.7,36.9-31.2c2.1-8.4,3-17,4.6-25.5c1.8-9.5,4-19,6.6-28.3
				c2.5-9.1,5.3-18.1,8.5-27c1.5-4.3,3.1-8.5,4.7-12.7c0.9-2.2,1.7-4.4,2.6-6.6c0.4-1,0.8-2,1.2-2.9c0,0,1.9-4.4,0.9-2.1
				c7.1-16.7,15-33,23.3-49.1c18.5-36.1,38-71.8,57-107.7c10-18.9,20.6-37.6,30.2-56.6c0.1-0.2,0.3-0.4,0.4-0.6
				c-0.7,1.5-2,2.2-3.9,2.3c-1,0.4-2.1,0.8-3.2,1.2c-0.8,0-1.6-0.2-2.3-0.7c0.5-0.4,4.9,2.9,5.5,3.3c4.6,3.1,9.2,6.2,13.8,9.4
				c9.2,6.2,18.4,12.5,27.5,18.7c40.3,27.4,80.6,54.7,120.9,82.1c-1.8-7-3.7-14-5.5-21.1c-30.1,46.4-60.9,93-86.6,142.1
				c-12.9,24.5-23.6,49.9-33,75.9c-9.5,26-17.8,48.1-32.8,71.7c-13.9,22.1-29.4,43-42.1,65.9c-13.3,24.1-25,49-37.3,73.6
				c-2.8,5.6-5.7,11.2-8.6,16.8c-1.4,2.7-2.8,5.4-4.4,8c-0.2,0.4-3.1,3.8-0.9,1.5c-0.6,0.7-1.2,1.3-1.9,1.9c1.4-1,1.4-1.1,0-0.2
				c0.8-0.3,1.4-0.4,2.1-0.6c-0.5,0-1,0-1.6,0c1.4,0.3,1.2,0.3-0.7-0.1c-3.3-0.7-6.6-1.8-9.9-2.9c-6.7-2.1-13.5-4.3-20.2-6.6
				c-26.7-9.1-53.5-19.5-78.3-30.5c-7.2-3.2-14.5-6.5-21.6-9.8c-3.1-1.4-6.2-2.9-9-4.7c-0.1-0.1-3.9-2.9-1.8-1.2
				c-1.6-1.3-3.1-2.8-4.3-4.5c1.5,2,0.1-0.1-0.1-0.4c-0.9-1.8-2-3.4-2.9-5.2c0,0-2-4.6-0.9-2c-0.8-2-1.5-3.9-2.1-5.9
				c-2.4-7.1-4.3-14.3-6.3-21.5c-4.3-15.7-8-31.6-11.1-47.5c-1.5-7.7-2.9-15.3-4.1-23.1c-1.4-8.7-2.2-14.5-3.1-22.6
				c-0.7-5.6-2.5-10.3-7.6-13.3c-4.3-2.5-11.3-3.2-15.5,0c-17,13-27.1,31.1-35.9,50.2c-4.3,9.4-8.4,18.9-13,28.2
				c-2.2,4.3-4.5,8.6-7,12.8c-1.1,1.8-2.3,3.7-3.5,5.4c-0.6,0.8-1.3,2.4-2.2,3c0,0,2-2.4,0.8-1.1c-0.5,0.5-0.9,1.1-1.3,1.6
				c-1.3,1.5-2.7,3-4.1,4.4c-0.8,0.8-1.7,1.6-2.5,2.3c-0.4,0.3-0.8,0.6-1.1,0.9c-1.4,1.3,2.5-1.6,0.8-0.6c-1.7,1-3.3,2.1-4.9,3.1
				c-0.3,0.1-2.1,1.1-0.9,0.5c1.3-0.6-1,0.4-1,0.4c-1.7,0.6-3.4,1.1-5.2,1.5c-0.8,0.2-1.5,0.3-2.3,0.5c0.3-0.1,2.1-0.2,0.3,0
				c-1.8,0.2-3.7,0.3-5.5,0.3c-3.5,0.1-6.9-0.1-10.4-0.5c-0.8-0.1-1.6-0.2-2.4-0.3c0.4,0,1.9,0.3,0,0c-1.9-0.3-3.8-0.6-5.7-0.9
				c-3.6-0.6-7.2-1.3-10.8-2c-15.5-2.9-31.1-5.9-46.6-8.8c-7.8-1.5-15.6-2.9-23.4-4.4c-2.8-0.6-5.6-1.2-8.4-2.1
				c-0.8-0.3-3.8-1.7-1.8-0.6c-0.7-0.4-1.3-0.7-2-1.1c-0.5-0.3-3-1.9-1.4-0.7c-1.2-0.9-2.2-1.9-3.2-3c-0.6-0.6-2.6-3.1-1.1-1.2
				c-2-2.7-3.7-5.7-5.2-8.7c-0.7-1.3-1.3-2.7-1.9-4.1c0,0-1-2.3-0.4-1c0.6,1.4-0.4-1-0.4-1c-1.3-3.4-2.5-6.8-3.7-10.2
				c-4.8-13.8-9.6-27.6-14.9-41.3c-10.7-28.2-22.5-55.9-35-83.3c-24.4-53.1-52-104.6-81.3-155.1c-29-50-59.7-99-90.6-147.9
				c-3.8-6-7.6-12.1-11.5-18.1c-4.3-6.8-13.9-10.1-21.1-5.5c-6.8,4.4-10.1,13.8-5.5,21.1c31.6,49.9,63.2,99.9,93.2,150.9
				c30.2,51.2,58.7,103.4,84.1,157.2c13.1,27.8,24,53,34.9,81c5.5,14.1,10.7,28.2,15.6,42.5c4.6,13.3,8.9,27.6,17.2,39.1
				c4.8,6.7,10.6,12.7,18.1,16.6c6.7,3.4,13.6,5.3,21,6.7c15.8,3,31.7,6,47.5,9c28.7,5.4,63.4,16.4,90.3-0.6
				c18-11.4,28.5-30.7,37.2-49.5c4.4-9.4,8.5-19,13-28.3c2.3-4.6,4.6-9.1,7.3-13.5c1.2-2,2.5-4.1,3.8-6c0.6-0.9,1.2-1.8,1.9-2.6
				c1.5-2.1-1.7,2,0.5-0.7c1.4-1.7,2.9-3.4,4.5-5c0.8-0.8,1.7-1.7,2.6-2.4c0.7-0.7,3.7-3.1,0.4-0.5c-7.7-4.4-15.4-8.9-23.2-13.3
				c3.6,30.6,9,60.9,16.6,90.8c3.7,14.5,7.4,29.2,13.3,43c5.8,13.5,15.3,23.6,28.6,30.1c27,13.1,54.9,24.6,83,35.1
				c13.9,5.2,27.9,10.1,41.9,14.6c7.3,2.3,14.5,5,22.2,5.6c9,0.7,17.5-2.7,23.8-9c9.4-9.4,14.6-23.3,20.5-35
				c6.4-12.9,12.7-25.8,19.1-38.7c12.6-25.3,26.2-49.7,42-73.1c7.4-11,15-21.9,21.8-33.3c7.6-12.8,13.8-26.1,19.4-39.9
				c5.4-13.2,10-26.7,15-40.1c5.1-13.8,9.5-24.7,15.6-37.7c13-27.8,28.5-54.4,44.6-80.5c17.4-28.4,35.2-56.5,53.3-84.4
				c4.7-7.3,1.1-16.6-5.5-21.1c-36.2-24.6-72.5-49.2-108.7-73.7c-17.9-12.1-35.6-24.4-53.6-36.4c-11.1-7.4-25.1-10.3-35.1,0.7
				c-3.6,4-5.9,8.9-8.4,13.6c-2.7,5.1-5.5,10.3-8.2,15.4c-20.1,37.9-40.3,75.8-60.4,113.7c-17.5,33-34.5,66.2-47.5,101.3
				c-7.6,20.5-13.6,41.5-17.5,63c-1.7,9.4-2.6,19-5.4,28.1c-0.2,0.8-0.5,1.6-0.8,2.4c-0.2,0.5-1.5,3.5-0.5,1.5
				c1.1-2.2-0.6,1.1-0.7,1.2c-0.4,0.8-1,1.5-1.4,2.2c-1,1.9,2.4-2.8,0.3-0.5c-1.8,2,2.1-1.5,0.7-0.6c-0.7,0.4,3.4-1,4.2-1
				c-2.9,0,3.7,0.9,0.4,0.1c3.6,3.6,7.2,7.2,10.8,10.8c-10.6-52.8-19.8-105.9-27.5-159.2c-3.7-25.8-6.9-50.7-10-77.4
				c-1.5-12.7-2.6-25.5-4.2-38.2c-0.9-7.4-2.5-14.7-8-20.2c-4.9-5-11.1-6.7-17.8-7.9c-26.8-4.8-53.6-9.6-80.3-14.4
				c-13.8-2.5-27.7-5.6-41.6-7.2c-15.2-1.8-27.9,7-31.4,22c-2.9,12.4-2.1,26-2.7,38.7c-0.7,12.9-1.5,25.7-2.6,38.5
				c-2.2,25.4-4.9,48.2-8.7,72.1c-8.5,53.7-21.3,106.7-39,158.2c9.9,0,19.8,0,29.7,0c-42.6-107.4-85.1-214.8-127.7-322.2
				c-12.1-30.4-24.1-60.9-36.2-91.3c-3.2-8.1-10-12.7-18.9-10.8c-60.5,13.4-121,26.7-181.5,40.1c-7.9,1.7-13.2,11.3-10.8,18.9
				C38.6,264.1,46.4,268.4,54.9,266.6L54.9,266.6z"/>
		</g>
	</g>
</g>
</svg>
